Patient5_TMGait_0pt45_1_right_09_EMG.mot
version=1
nRows=33
nColumns=33
inDegrees=no
endheader
time	1LAddLong	2LGlutMax	3LGlutMed	4LIliopsoas	5LSemiMemb	6LBicFemLong	7LRecFem	8LTensFascLat	9LVastMed	10LVasLat	11LGasMed	12lGasLat	13LTibAnt	14LPeroneusLong	15LSol	16LTibPost	17RAddLong	18RGlutMax	19RGlutMed	20RIliopsoas	21RSemiMemb	22RBicFemLong	23RRecFem	24RTensFascLat	25RVastMed	26RVasLat	27RGasMed	28RGasLat	29RTibAnt	30RPeroneusLong	31RSol	32RTibPost
15.795	0.025024	-0.017242	-0.035248	0.020905	0.022278	0.038452	0.012817	-0.34668	-0.084381	-0.015869	0.16693	-0.016632	-0.065613	0.005188	0.20813	0.073547	0.007629	-0.001678	0.054016	0.049286	0.086517	-0.00824	-0.031128	0.15121	-0.012207	0.015869	0.003967	0.019073	0.015411	-0.019073	0.005341	-0.026703
15.796	0.014038	-0.034027	0.014496	0.005341	0.01358	0.020142	0.006409	-0.34821	-0.04776	-0.013123	0.14496	-0.010834	-0.029449	0.028076	0.25574	0.030518	0.006256	-0.001373	-0.018921	-0.13855	0.095367	0.003662	-0.024567	0.2829	-0.005646	0.015259	0.000763	0.020599	0.034637	-0.014496	0.004272	-0.028076
15.797	0.009918	-0.036163	0.02594	-0.004272	0.006714	-0.007629	0.008698	-0.35629	-0.025024	0.00061	-0.058899	-0.012512	0.1976	0.007477	0.19745	-0.12009	0.009155	-0.006256	-0.031891	0.1358	0.065308	-0.001068	-0.024719	0.35019	-0.000153	0.019531	0.001984	0.011139	0.019226	-0.028381	0.007324	-0.021362
15.798	0.001373	-0.033112	0.043945	-0.003967	0.005798	-0.046082	0.007324	-0.20233	-0.01709	0.026093	0.018158	-0.005798	0.13702	0.003967	-0.039673	-0.056305	0.017853	0.004272	-0.064697	-0.065155	0.093842	0.009155	-0.027313	0.30502	0.002136	0.024414	-0.000305	-0.005341	-0.000763	-0.059509	0.012054	-0.021515
15.799	0.006561	-0.015259	-0.023499	-0.015259	0.001373	-0.068054	0.016022	-0.1886	-0.00473	0.066681	-0.085907	-0.012665	0.18753	-0.029297	-0.1004	-0.10468	0.02533	0.003967	-0.046082	0.12482	0.074005	0.020599	-0.017853	0.22842	0.011597	0.02533	0.003662	0.005341	-0.053253	-0.081635	0.008698	-0.018921
15.8	0.014343	0.000305	-0.11764	-0.014038	-0.021667	-0.081329	0.005493	-0.32638	0.003357	0.075989	-0.16083	-0.033264	0.13794	-0.057678	-0.054779	-0.10544	0.010071	0.001068	-0.018311	0.034485	0.082092	0.019836	-0.013885	0.14633	0.007629	0.025635	0.003815	-0.010529	-0.10712	-0.081787	0.007172	-0.005951
15.801	0.031738	0.016327	-0.1088	0.00061	-0.002136	-0.13596	0.020447	-0.36118	0.006866	0.042267	0.28503	-0.005646	0.10147	-0.051727	-0.096741	0.020447	0.011292	0.001831	0.019226	0.011139	0.085449	0.014343	-0.016174	0.083313	0.002136	0.025024	0.001831	-0.025177	-0.12207	-0.049896	-0.000153	-0.011597
15.802	0.033722	0.035248	-0.020447	0.027618	0.010681	-0.12741	0.016327	-0.26093	0.009003	0.017548	0.10193	0.018463	0.019379	-0.043488	-0.13458	0.000153	0.000305	0.000763	0.023041	0.068665	0.08255	0.011292	-0.024567	0.065002	0.001526	0.024719	-0.007629	-0.016632	-0.10544	-0.06897	-0.002594	-0.019684
15.803	0.032806	0.044556	0.042725	0.014954	0.029907	-0.1294	0.016785	-0.16312	0.009918	0.006409	-0.080261	0.0177	-0.070038	-0.02182	-0.090027	-0.019989	-0.009613	-0.002747	-0.014191	-0.10803	0.06958	0.013885	-0.020142	0.014954	0.007935	0.021667	-0.006104	0.004272	-0.047913	-0.076141	-0.007324	-0.010986
15.804	0.032196	0.03891	0.014648	-0.049133	0.034485	-0.12054	0.014038	-0.070648	0.014496	0.03067	-0.017242	0.002594	-0.067444	-0.033112	-0.035858	0.014496	-0.029297	-0.001373	-0.014038	0.19714	0.060425	0.016937	-0.021515	-0.030823	0.014801	0.024872	-0.008087	-0.015717	-0.005035	-0.018921	-0.02182	-0.006256
15.805	0.024719	0.038147	0.081482	0.011444	0.03067	-0.10193	0.011444	-0.041962	0.02655	0.039825	0.066681	-0.005341	-0.057068	-0.046844	0.00824	-0.019226	-0.026245	-0.001526	-0.038757	0.14191	0.054169	0.014038	-0.022888	-0.083771	0.028687	0.022278	0.001831	-0.022125	0.04303	0.00885	-0.019073	-0.007477
15.806	0.001373	0.017395	0.083313	0.046997	0.044861	-0.10101	0.015564	-0.027161	0.031433	0.042419	0.046692	0.023499	-0.037079	-0.015411	-0.034485	0.054016	-0.021973	-0.001373	0.000153	-0.023499	0.053864	0.015717	-0.027161	-0.14328	0.028687	0.016479	0.003357	-0.01358	0.069427	0.00473	-0.013275	-0.010529
15.807	-0.007324	-0.027313	-0.042419	0.011597	0.04776	-0.089722	0.016022	-0.076752	0.02243	0.022736	0.030518	0.013275	0.07431	0.014801	-0.10437	-0.000153	-0.007324	0.006104	0.02655	-0.11429	0.082397	0.015106	-0.031128	-0.13107	0.044098	0.006256	0.001984	-0.004578	0.054932	0.002747	-0.00412	-0.004883
15.808	0.002899	-0.039063	-0.10986	0.019836	0.05249	-0.08255	0.007782	-0.18478	0.009003	0.006256	-0.049896	0.0354	0.058594	0.028687	-0.1535	-0.054932	-0.00946	-0.001984	0.014038	0.12466	0.081177	0.011292	-0.031281	-0.056	0.06134	0.005035	-0.001068	-0.002594	0.032349	-0.007629	0.010834	-0.002289
15.809	0.018311	-0.04303	-0.11948	0.007324	-0.013123	-0.11047	0.002594	-0.22217	-0.015106	-0.010529	0.039215	0.020142	-0.049896	0.035095	-0.18387	-0.010223	-0.00824	-0.000763	-0.001373	0.028992	0.077057	0.018768	-0.028534	0.059052	0.083466	0.00824	0.003815	-0.001373	0.003967	-0.019836	0.019989	-0.006714
15.81	0.013733	-0.048065	-0.09552	0.006561	-0.019226	-0.085144	-0.001526	-0.18249	-0.016632	-0.00885	0.031586	-0.000153	-0.03067	0.032501	-0.13977	0.04837	-0.001984	0.002441	-0.011597	-0.030212	0.069733	0.003357	-0.028992	0.062103	0.091095	0.010986	-0.00351	-0.019226	-0.014343	-0.046234	0.043488	-0.012817
15.811	0.005493	-0.044708	0.003815	0.010529	-0.055084	-0.058594	0.009308	-0.061798	-0.022583	-0.016785	0.001373	-0.012512	0.005188	0.003357	0.013123	-0.10407	0.003662	0.00412	-0.018311	0.037994	0.055695	0.005493	-0.032196	0.014191	0.087891	0.002136	0.000763	-0.017242	-0.006409	-0.043793	0.036316	-0.009155
15.812	0.028992	-0.037537	0.11719	0.010681	-0.049286	-0.021515	0.024414	-0.07019	-0.023346	-0.024414	-0.003967	0.001221	-0.054169	-0.041199	0.029755	-0.007782	0.006409	0.000763	-0.045166	0.062866	0.081787	0	-0.027924	-0.056152	0.099182	0.000305	-0.001831	-0.015717	0.001831	-0.033722	0.027466	-0.01358
15.813	0.055084	-0.02243	0.075226	0.020142	-0.035095	-0.001831	0.016022	-0.12451	-0.02182	-0.039215	0.02243	-0.016632	-0.1506	-0.040588	-0.010376	0.007172	0.007477	0.00824	0.004883	-0.052338	0.088654	0.001068	-0.024109	-0.12772	0.10529	0.006714	0.001526	-0.015564	-0.004425	-0.027008	0.01709	-0.014191
15.814	0.066071	-0.005035	0.067139	0.022583	0.016479	-0.020905	-0.002899	-0.159	-0.018158	-0.039978	-0.003204	-0.017242	-0.18433	-0.055542	-0.016479	0.037994	0.018768	0.003967	0.036469	0.088806	0.075073	-0.01709	-0.020294	-0.17624	0.11444	0.00351	-0.000153	-0.010529	0.002747	-0.031128	0.00946	-0.016022
15.815	0.084229	0.002289	0.022583	0.007782	0.054779	-0.06073	0.003052	-0.19134	-0.016174	-0.002747	0.017395	0.003815	-0.16693	-0.022583	-0.044098	0.011902	0.000305	-0.000305	0.051117	0.03067	0.070343	-0.024719	-0.014496	-0.23361	0.10956	-0.004578	-0.001526	-0.015411	0.011902	-0.023346	0.006714	-0.010834
15.816	0.060425	0.021515	-0.080872	0.014954	-0.023956	-0.048218	0.006866	-0.26321	0.055695	0.032043	0.028381	0.007172	-0.087585	0.014801	-0.02243	-0.050964	-0.028076	-0.003052	0.043182	-0.11749	0.080566	-0.025635	-0.013733	-0.23239	0.11841	0.002747	0.00061	-0.008087	0.018463	-0.019989	0.007782	-0.011444
15.817	0.038757	0.025482	-0.045929	-0.001068	-0.045319	-0.003815	0.023041	-0.21103	0.1181	0.071869	0.013733	0.006409	-0.019073	0.011139	-0.020294	0.036926	-0.03067	-0.003815	0.01297	-0.18799	0.070648	-0.006561	-0.017853	-0.16708	0.11749	-0.006104	0.002136	0.000763	0.01236	0.001678	0.008545	-0.005188
15.818	0.043793	0.031586	0.12726	-0.004883	-0.055847	0.1059	0.041656	-0.064545	0.12772	0.1152	0.015259	-0.001068	0.12299	0.009003	-0.005188	-0.15106	-0.025024	0.000153	0.00473	0.16586	0.022583	-0.005188	-0.018463	-0.11505	0.11124	0.007172	0.001526	0.010986	0.024719	0.040894	0.004425	-0.009918
15.819	0.043793	0.034943	0.068054	0.00412	-0.057068	0.092926	0.035858	-0.20431	0.1033	0.10742	-0.002289	-0.010681	0.038452	-0.017853	-0.02121	-0.070343	-0.022125	-0.00061	0.016937	-0.30853	-0.023193	-0.005341	-0.018463	0.022888	0.091705	0.002594	0.003967	0.017395	0.040131	0.04425	0.006104	-0.018463
15.82	0.029144	0.024414	-0.036774	0.002289	0.010834	0.020905	0.024109	-0.33691	0.075836	0.075226	0.004883	-0.004883	-0.079956	-0.027313	0.007935	-0.098267	-0.019379	-0.001678	-0.000153	0.069122	-0.017548	-0.017395	-0.018311	0.12833	0.074921	0.001984	0.005188	0.029907	0.028839	0.039368	0.009918	-0.012207
15.821	-0.042267	0.017853	-0.058899	0.010529	0.02121	-0.010529	0.006104	-0.35858	0.043945	0.068054	0.001221	-0.00351	-0.16327	-0.014648	-0.016022	0.045624	-0.023499	-0.004425	0.01236	0.016327	-0.015259	-0.003967	-0.017853	0.097961	0.084686	0.010834	0.007019	0.041504	0.028992	0.046844	0.00473	-0.013428
15.822	-0.00473	0.012665	-0.031738	0.006714	0.001526	-0.005951	-0.005951	-0.30914	0.00061	0.045013	-0.021973	0.002747	-0.16983	0.01236	-0.058136	-0.088806	-0.027161	0.005646	0.031586	-0.26413	0.026245	-0.009766	-0.021362	0.09201	0.097046	0.003815	0.003204	0.027771	0.024719	0.040741	0.001068	-0.02533
15.823	0.040588	-0.005951	-0.038452	0.001678	-0.028229	0.023651	-0.023041	-0.26718	-0.042877	0.018921	-0.058899	0.008087	-0.12253	0.050507	-0.011139	-0.012512	-0.056915	-0.004578	0.000763	0.017395	0.029449	-0.006409	-0.020294	0.063019	0.089264	-0.000763	0.004425	0.024719	0.019226	0.019073	0.009308	-0.016479
15.824	0.0383	-0.015106	-0.019684	-0.000305	0.018921	0.040283	-0.020905	-0.18997	-0.078735	0.027008	-0.063629	0.006256	-0.06073	0.063477	-0.013428	0.003204	-0.054321	-0.001526	-0.012054	0.24567	0.023804	0.010986	-0.020752	0.052032	0.089874	0.004272	0.004883	0.004425	0.012817	-0.044098	0.018463	-0.008545
15.825	0.040894	-0.009918	0.10864	-0.004272	0.057068	0.02243	-0.014343	0.087738	-0.10925	0.005341	-0.041962	0.003662	0.081482	0.044861	-0.003662	-0.059204	-0.051575	0.002289	-0.06424	-0.070496	0.032806	-0.003052	-0.020142	0.075226	0.083313	-0.001068	0.013123	-0.029755	0.004883	-0.12451	0.023804	-0.006409
15.826	0.028992	-0.021515	0.19028	0.016479	0.1329	0.026245	-0.008087	0.1358	-0.11551	0.008087	-0.025024	0.00946	0.12253	0.024872	0.003357	-0.003052	-0.036316	0.005493	-0.044708	0.29816	0.034485	0.00061	-0.020447	0.07309	0.082855	0.002136	0.012512	-0.054321	0.002136	-0.12268	0.025482	-0.00351
15.827	0.027161	-0.033722	0.099182	0.002594	0.16434	0.023651	-0.002594	-0.010223	-0.067444	-0.044098	-0.001831	0.010376	0.12222	-0.009918	0.000763	0.066528	-0.026398	-0.001068	-0.041809	0.0177	0.033417	0.003357	-0.022278	0.071869	0.083008	0.006714	0.013428	-0.072174	-0.000458	-0.09079	0.021667	-0.00412
